<svg xmlns="http://www.w3.org/2000/svg" viewBox="0 0 320 320" width="320" height="320" role="img" aria-label="story-7.svg"><defs><linearGradient id="g" x1="0" y1="0" x2="1" y2="1"><stop offset="0" stop-color="#f5a623"/><stop offset="0.55" stop-color="#e0951d"/><stop offset="1" stop-color="#a2440f"/></linearGradient><radialGradient id="v" cx="0.28" cy="0.12" r="1.1"><stop offset="0" stop-color="#fff" stop-opacity="0.22"/><stop offset="0.55" stop-color="#fff" stop-opacity="0"/></radialGradient><filter id="n"><feTurbulence type="fractalNoise" baseFrequency="0.9" numOctaves="2" stitchTiles="stitch" result="t"/><feColorMatrix in="t" type="matrix" values="0 0 0 0 0 0 0 0 0 0 0 0 0 0 0 0 0 0 0.045 0"/></filter></defs><rect width="320" height="320" fill="url(#g)"/><g fill="#000" opacity="0.1"><circle cx="0" cy="0" r="4.4"/><circle cx="26" cy="0" r="4.1"/><circle cx="52" cy="0" r="3.8"/><circle cx="78" cy="0" r="3.4"/><circle cx="104" cy="0" r="3.1"/><circle cx="130" cy="0" r="2.8"/><circle cx="156" cy="0" r="2.5"/><circle cx="182" cy="0" r="2.1"/><circle cx="208" cy="0" r="1.8"/><circle cx="234" cy="0" r="1.5"/><circle cx="260" cy="0" r="1.2"/><circle cx="286" cy="0" r="0.8"/><circle cx="312" cy="0" r="0.5"/><circle cx="0" cy="26" r="4.4"/><circle cx="26" cy="26" r="4.1"/><circle cx="52" cy="26" r="3.8"/><circle cx="78" cy="26" r="3.4"/><circle cx="104" cy="26" r="3.1"/><circle cx="130" cy="26" r="2.8"/><circle cx="156" cy="26" r="2.5"/><circle cx="182" cy="26" r="2.1"/><circle cx="208" cy="26" r="1.8"/><circle cx="234" cy="26" r="1.5"/><circle cx="260" cy="26" r="1.2"/><circle cx="286" cy="26" r="0.8"/><circle cx="312" cy="26" r="0.5"/><circle cx="0" cy="52" r="4.4"/><circle cx="26" cy="52" r="4.1"/><circle cx="52" cy="52" r="3.8"/><circle cx="78" cy="52" r="3.4"/><circle cx="104" cy="52" r="3.1"/><circle cx="130" cy="52" r="2.8"/><circle cx="156" cy="52" r="2.5"/><circle cx="182" cy="52" r="2.1"/><circle cx="208" cy="52" r="1.8"/><circle cx="234" cy="52" r="1.5"/><circle cx="260" cy="52" r="1.2"/><circle cx="286" cy="52" r="0.8"/><circle cx="312" cy="52" r="0.5"/><circle cx="0" cy="78" r="4.4"/><circle cx="26" cy="78" r="4.1"/><circle cx="52" cy="78" r="3.8"/><circle cx="78" cy="78" r="3.4"/><circle cx="104" cy="78" r="3.1"/><circle cx="130" cy="78" r="2.8"/><circle cx="156" cy="78" r="2.5"/><circle cx="182" cy="78" r="2.1"/><circle cx="208" cy="78" r="1.8"/><circle cx="234" cy="78" r="1.5"/><circle cx="260" cy="78" r="1.2"/><circle cx="286" cy="78" r="0.8"/><circle cx="312" cy="78" r="0.5"/><circle cx="0" cy="104" r="4.4"/><circle cx="26" cy="104" r="4.1"/><circle cx="52" cy="104" r="3.8"/><circle cx="78" cy="104" r="3.4"/><circle cx="104" cy="104" r="3.1"/><circle cx="130" cy="104" r="2.8"/><circle cx="156" cy="104" r="2.5"/><circle cx="182" cy="104" r="2.1"/><circle cx="208" cy="104" r="1.8"/><circle cx="234" cy="104" r="1.5"/><circle cx="260" cy="104" r="1.2"/><circle cx="286" cy="104" r="0.8"/><circle cx="312" cy="104" r="0.5"/><circle cx="0" cy="130" r="4.4"/><circle cx="26" cy="130" r="4.1"/><circle cx="52" cy="130" r="3.8"/><circle cx="78" cy="130" r="3.4"/><circle cx="104" cy="130" r="3.1"/><circle cx="130" cy="130" r="2.8"/><circle cx="156" cy="130" r="2.5"/><circle cx="182" cy="130" r="2.1"/><circle cx="208" cy="130" r="1.8"/><circle cx="234" cy="130" r="1.5"/><circle cx="260" cy="130" r="1.2"/><circle cx="286" cy="130" r="0.8"/><circle cx="312" cy="130" r="0.5"/><circle cx="0" cy="156" r="4.4"/><circle cx="26" cy="156" r="4.1"/><circle cx="52" cy="156" r="3.8"/><circle cx="78" cy="156" r="3.4"/><circle cx="104" cy="156" r="3.1"/><circle cx="130" cy="156" r="2.8"/><circle cx="156" cy="156" r="2.5"/><circle cx="182" cy="156" r="2.1"/><circle cx="208" cy="156" r="1.8"/><circle cx="234" cy="156" r="1.5"/><circle cx="260" cy="156" r="1.2"/><circle cx="286" cy="156" r="0.8"/><circle cx="312" cy="156" r="0.5"/><circle cx="0" cy="182" r="4.4"/><circle cx="26" cy="182" r="4.1"/><circle cx="52" cy="182" r="3.8"/><circle cx="78" cy="182" r="3.4"/><circle cx="104" cy="182" r="3.1"/><circle cx="130" cy="182" r="2.8"/><circle cx="156" cy="182" r="2.5"/><circle cx="182" cy="182" r="2.1"/><circle cx="208" cy="182" r="1.8"/><circle cx="234" cy="182" r="1.5"/><circle cx="260" cy="182" r="1.2"/><circle cx="286" cy="182" r="0.8"/><circle cx="312" cy="182" r="0.5"/><circle cx="0" cy="208" r="4.4"/><circle cx="26" cy="208" r="4.1"/><circle cx="52" cy="208" r="3.8"/><circle cx="78" cy="208" r="3.4"/><circle cx="104" cy="208" r="3.1"/><circle cx="130" cy="208" r="2.8"/><circle cx="156" cy="208" r="2.5"/><circle cx="182" cy="208" r="2.1"/><circle cx="208" cy="208" r="1.8"/><circle cx="234" cy="208" r="1.5"/><circle cx="260" cy="208" r="1.2"/><circle cx="286" cy="208" r="0.8"/><circle cx="312" cy="208" r="0.5"/><circle cx="0" cy="234" r="4.4"/><circle cx="26" cy="234" r="4.1"/><circle cx="52" cy="234" r="3.8"/><circle cx="78" cy="234" r="3.4"/><circle cx="104" cy="234" r="3.1"/><circle cx="130" cy="234" r="2.8"/><circle cx="156" cy="234" r="2.5"/><circle cx="182" cy="234" r="2.1"/><circle cx="208" cy="234" r="1.8"/><circle cx="234" cy="234" r="1.5"/><circle cx="260" cy="234" r="1.2"/><circle cx="286" cy="234" r="0.8"/><circle cx="312" cy="234" r="0.5"/><circle cx="0" cy="260" r="4.4"/><circle cx="26" cy="260" r="4.1"/><circle cx="52" cy="260" r="3.8"/><circle cx="78" cy="260" r="3.4"/><circle cx="104" cy="260" r="3.1"/><circle cx="130" cy="260" r="2.8"/><circle cx="156" cy="260" r="2.5"/><circle cx="182" cy="260" r="2.1"/><circle cx="208" cy="260" r="1.8"/><circle cx="234" cy="260" r="1.5"/><circle cx="260" cy="260" r="1.2"/><circle cx="286" cy="260" r="0.8"/><circle cx="312" cy="260" r="0.5"/><circle cx="0" cy="286" r="4.4"/><circle cx="26" cy="286" r="4.1"/><circle cx="52" cy="286" r="3.8"/><circle cx="78" cy="286" r="3.4"/><circle cx="104" cy="286" r="3.1"/><circle cx="130" cy="286" r="2.8"/><circle cx="156" cy="286" r="2.5"/><circle cx="182" cy="286" r="2.1"/><circle cx="208" cy="286" r="1.8"/><circle cx="234" cy="286" r="1.5"/><circle cx="260" cy="286" r="1.2"/><circle cx="286" cy="286" r="0.8"/><circle cx="312" cy="286" r="0.5"/><circle cx="0" cy="312" r="4.4"/><circle cx="26" cy="312" r="4.1"/><circle cx="52" cy="312" r="3.8"/><circle cx="78" cy="312" r="3.4"/><circle cx="104" cy="312" r="3.1"/><circle cx="130" cy="312" r="2.8"/><circle cx="156" cy="312" r="2.5"/><circle cx="182" cy="312" r="2.1"/><circle cx="208" cy="312" r="1.8"/><circle cx="234" cy="312" r="1.5"/><circle cx="260" cy="312" r="1.2"/><circle cx="286" cy="312" r="0.8"/><circle cx="312" cy="312" r="0.5"/><circle cx="0" cy="338" r="4.4"/><circle cx="26" cy="338" r="4.1"/><circle cx="52" cy="338" r="3.8"/><circle cx="78" cy="338" r="3.4"/><circle cx="104" cy="338" r="3.1"/><circle cx="130" cy="338" r="2.8"/><circle cx="156" cy="338" r="2.5"/><circle cx="182" cy="338" r="2.1"/><circle cx="208" cy="338" r="1.8"/><circle cx="234" cy="338" r="1.5"/><circle cx="260" cy="338" r="1.2"/><circle cx="286" cy="338" r="0.8"/><circle cx="312" cy="338" r="0.5"/></g><rect width="320" height="320" fill="url(#v)"/><rect x="133" y="131" width="116" height="5.4" fill="#fff" opacity="0.13" rx="2.7"/><rect x="101" y="36" width="99" height="5.4" fill="#fff" opacity="0.12" rx="2.7"/><rect x="220" y="71" width="132" height="3.7" fill="#fff" opacity="0.08" rx="1.9"/><rect x="213" y="33" width="117" height="2.8" fill="#fff" opacity="0.08" rx="1.4"/><rect x="32" y="110" width="67" height="5.1" fill="#fff" opacity="0.09" rx="2.5"/><rect x="178" y="160" width="110" height="2.5" fill="#fff" opacity="0.06" rx="1.2"/><rect x="15" y="271" width="132" height="2.1" fill="#fff" opacity="0.08" rx="1.1"/><g stroke="#fff" stroke-opacity="0.16" fill="none" stroke-width="2.5"><path d="M-48.0 256.0 Q 160.0 211.20000000000002 368.0 268.8"/><path d="M-48.0 294.40000000000003 Q 160.0 256.0 368.0 307.2"/><circle cx="160.0" cy="377.59999999999997" r="166.4"/><line x1="160.0" y1="96.0" x2="160.0" y2="320" /></g><path d="M44.800000000000004 275.2 l 9 -20 l 9 20 Z" fill="#fff" opacity="0.55"/><path d="M105.60000000000001 275.2 l 9 -20 l 9 20 Z" fill="#fff" opacity="0.55"/><path d="M166.4 275.2 l 9 -20 l 9 20 Z" fill="#fff" opacity="0.55"/><path d="M227.20000000000002 275.2 l 9 -20 l 9 20 Z" fill="#fff" opacity="0.55"/><g opacity="1"><ellipse cx="224.0" cy="177.76" rx="57.12000000000001" ry="17.408" fill="#000" opacity="0.22"/><circle cx="224.0" cy="115.19999999999999" r="54.400000000000006" fill="#fff"/><polygon points="224.0,93.4 244.7,108.5 236.8,132.8 211.2,132.8 203.3,108.5" fill="#3a2a1c"/><line x1="224.0" y1="93.4" x2="224.0" y2="60.8" stroke="#3a2a1c" stroke-width="4.4"/><line x1="244.7" y1="108.5" x2="275.7" y2="98.4" stroke="#3a2a1c" stroke-width="4.4"/><line x1="236.8" y1="132.8" x2="256.0" y2="159.2" stroke="#3a2a1c" stroke-width="4.4"/><line x1="211.2" y1="132.8" x2="192.0" y2="159.2" stroke="#3a2a1c" stroke-width="4.4"/><line x1="203.3" y1="108.5" x2="172.3" y2="98.4" stroke="#3a2a1c" stroke-width="4.4"/><line x1="224.0" y1="93.4" x2="244.7" y2="108.5" stroke="#3a2a1c" stroke-width="2.7"/><line x1="244.7" y1="108.5" x2="236.8" y2="132.8" stroke="#3a2a1c" stroke-width="2.7"/><line x1="236.8" y1="132.8" x2="211.2" y2="132.8" stroke="#3a2a1c" stroke-width="2.7"/><line x1="211.2" y1="132.8" x2="203.3" y2="108.5" stroke="#3a2a1c" stroke-width="2.7"/><line x1="203.3" y1="108.5" x2="224.0" y2="93.4" stroke="#3a2a1c" stroke-width="2.7"/></g><rect width="320" height="320" filter="url(#n)"/><rect width="320" height="320" fill="#f0ebe4" opacity="0.12"/></svg>